<svg xmlns="http://www.w3.org/2000/svg" xmlns:xlink="http://www.w3.org/1999/xlink" fill="none" version="1.1" width="24" height="40" viewBox="0 0 24 40"><defs><clipPath id="master_svg0_108_6145/108_4311"><rect x="0" y="0" width="24" height="24" rx="0"/></clipPath></defs><g clip-path="url(#master_svg0_108_6145/108_4311)"><path d="M3.9126414819335937,4.882120089501953L8.713291681933594,5.740474689501953L8.889299881933594,4.756086389501953L5.603975781933594,4.168671589501953Q8.206645481933593,1.850514289501953,11.751943481933594,1.5947932895019532Q15.632899481933594,1.3148612895019531,18.750673481933593,3.642900489501953Q21.868438481933595,5.970943489501953,22.702446481933595,9.771556889501953Q23.536457481933592,13.572164489501953,21.679956481933594,16.991765489501955Q19.823457481933595,20.411361489501953,16.181876481933593,21.782180489501954Q12.540294481933593,23.15299648950195,8.889664681933594,21.806472489501953Q5.239032781933593,20.459949489501952,3.3597907819335937,17.052799489501954Q1.4805460019335936,13.645646489501953,2.2892112819335937,9.839565289501953L1.3110456419335939,9.631736789501954Q0.4249353419335937,13.802319489501953,2.484152781933594,17.535766489501952Q4.543364081933594,21.269208489501953,8.543607681933594,22.74468648950195Q12.543849481933593,24.220163489501953,16.534175481933595,22.718069489501953Q20.524501481933594,21.215971489501953,22.558795481933593,17.468887489501952Q24.593086481933593,13.721799489501953,23.679203481933595,9.557216689501953Q22.765323481933592,5.392627689501953,19.348979481933593,2.841632889501953Q15.932625481933593,0.2906379695019531,11.680000481933593,0.5973834995019531Q7.992333881933594,0.8633730395019531,5.235387281933594,3.165750289501953L5.755384881933594,0.2574787095019531L4.770996081933594,0.08147048950195312L3.9126414819335937,4.882120089501953ZM19.000000481933593,11.999927489501953L17.999996481933593,11.999931489501954L12.999995481933594,11.999931489501954L12.999995481933594,6.999931289501953L13.000000481933593,5.999927489501953L10.999990481933594,5.999927489501953L10.999995181933594,6.999931289501953L10.999995181933594,12.899931489501952Q10.999995181933594,13.355564489501953,11.322173481933595,13.677745489501953Q11.644354481933593,13.999932489501953,12.099993481933593,13.999932489501953L17.999996481933593,13.999932489501953L19.000000481933593,13.999937489501953L19.000000481933593,11.999927489501953Z" fill-rule="evenodd" fill="#FFFFFF" fill-opacity="1"/></g><g><path d="M2.97999996,38.6400003L2.97999996,30.090000153L10.8800001,30.090000153L10.8800001,38.6400003L10.0699997,38.6400003L10.0699997,38.0100002L3.8099999,38.0100002L3.8099999,38.6400003L2.97999996,38.6400003ZM3.8099999,30.92000008L3.8099999,37.2200003L10.0699997,37.2200003L10.0699997,30.92000008L3.8099999,30.92000008ZM5.0699999,35.8900003L5.0699999,32.2400002L8.79,32.2400002L8.79,35.8900003L5.0699999,35.8900003ZM5.79,35.1599998L8.0699997,35.1599998L8.0699997,32.9700003L5.79,32.9700003L5.79,35.1599998ZM19.51,36.130000100000004Q20.349998,37.1799998,21.65,38.0299997L21.15,38.7600002Q19.889999,37.9099998,19.029999,36.8200002Q18.26,37.8099999,16.9,38.7799997L16.32,38.1099997Q17.799999,37.130000100000004,18.540001,36.130000100000004Q17.740000000000002,34.8600001,17.41,33.2000003Q17.1,33.619999899999996,17.07,33.6600003L16.53,33.0799999Q17.09,32.3499999,17.505000000000003,31.4450002Q17.92,30.53999996,18.119999,29.57999992L18.940001,29.69999981Q18.73,30.53999996,18.469999,31.21L21.469999,31.21L21.469999,32.04L20.68,32.04Q20.529999,33.3600001,20.26,34.3400002Q19.99,35.3200002,19.51,36.130000100000004ZM16.360001,33.3299999Q16.35,34.119999899999996,16.299999,35.29Q16.25,36.46,16.190001000000002,37.1100001Q16.119999999999997,37.8000002,15.88,38.0749998Q15.639999,38.3500004,15.07,38.3500004Q14.55,38.3500004,14.18,38.3000002L14.01,37.519999999999996Q14.53,37.5999999,14.79,37.5999999Q15.12,37.5999999,15.26,37.4349999Q15.4,37.269999999999996,15.45,36.8400002Q15.6,35.6100001,15.6,34.0700002L14.27,34.0700002Q14.22,35.2600002,14.1,36Q13.98,36.7399998,13.72,37.3450003Q13.46,37.9499998,12.96,38.7200003L12.24,38.2600002Q12.77,37.4899998,13.025,36.8499999Q13.28,36.21,13.385,35.369999899999996Q13.49,34.5299997,13.53,33.04Q13.55,32.8200002,13.55,32.1600003Q13.559999,32.0799999,13.559999,31.9300003L12.58,31.9300003L12.58,31.1200004L14.55,31.1200004Q14.41,30.73000002,14.27,30.36500025Q14.13,30,14.05,29.81000042L14.83,29.61000061Q14.92,29.82999992,15.085,30.25500011Q15.25,30.68000031,15.41,31.1200004L16.86,31.1200004L16.86,31.9300003L14.34,31.9300003L14.309999,32.7200003L14.3,33.1600003L14.3,33.3299999L16.360001,33.3299999ZM17.990000000000002,32.25Q18.209999,34.0600004,19.01,35.4000001Q19.369999,34.730000000000004,19.58,33.915Q19.790001,33.0999999,19.889999,32.04L18.1,32.04Q18.07,32.1100001,17.990000000000002,32.25Z" fill="#FFFFFF" fill-opacity="0.5"/></g></svg>