<svg xmlns="http://www.w3.org/2000/svg" xmlns:xlink="http://www.w3.org/1999/xlink" fill="none" version="1.1" width="24" height="40" viewBox="0 0 24 40"><path d="M21.670805,18.781689L19.411102,18.781689C19.233465,18.781689,19.088928,18.635036,19.088928,18.459476L19.088928,2.32221264C19.090054,2.14472914,19.23361,2.0011240533,19.411102,2L21.670805,2C21.848295,2.0011262692,21.991932,2.14473024,21.993057,2.32221264L21.993057,18.459476C21.993057,18.637108,21.84844,18.781689,21.670805,18.781689ZM1,2.47585529L1.83551413,2.47585529L1.84977776,21.92675L23,21.969061L22.999998,22.783543L1,22.783543L1,2.47585529ZM11.989534,18.781689L9.7298298,18.781689C9.5521946,18.781689,9.4075775,18.635036,9.4075775,18.459476L9.4075775,5.5504849C9.4075775,5.3721945,9.5515404,5.2273571,9.7298298,5.2262237L11.989534,5.2262237C12.167825,5.2273598,12.31179,5.3721974,12.311786,5.5504849L12.311786,18.459476C12.311786,18.637108,12.165104,18.781689,11.989534,18.781689ZM16.829144,18.781689L14.57149,18.781689L14.569441,18.779621C14.391807,18.779621,14.247189,18.632969,14.247189,18.455341L14.247189,8.694077C14.248318,8.5165973,14.391953,8.3730116,14.569441,8.3718848L16.829144,8.3718848C17.006634,8.3730116,17.150269,8.5165973,17.151398,8.694077L17.151398,18.459476C17.151398,18.637108,17.006779,18.781689,16.829144,18.781689ZM7.1478415,18.781689L4.8881419,18.781689C4.710505700000001,18.781689,4.565918,18.63504,4.565918,18.45948L4.565918,12.649401C4.5670455,12.47192,4.7106519,12.328318,4.8881419,12.327192L7.1478415,12.327192C7.3253307,12.32832,7.4689369,12.47192,7.4700642,12.649401L7.4700642,18.45948C7.4700642,18.63711,7.3254781,18.781689,7.1478415,18.781689Z" fill-rule="evenodd" fill="#FFFFFF" fill-opacity="1"/><g><path d="M10.3800001,31.1700001L10.3800001,34.6500001L3.51,34.6500001L3.51,31.1700001L5.3399999000000005,31.1700001Q5.05,30.74000025,4.470000000000001,29.980000496L5.1099999,29.53999996Q5.3199999,29.81000042,5.605,30.18499994Q5.889999899999999,30.55999994,6.0799999,30.82999992L5.5999999,31.1700001L7.6299996,31.1700001Q8.3299999,30.12000036,8.649999600000001,29.53999996L9.3699999,29.920000076Q9.1199999,30.34000015,8.5499997,31.1700001L10.3800001,31.1700001ZM4.3199999,33.9000001L9.5799999,33.9000001L9.5799999,31.9400001L4.3199999,31.9400001L4.3199999,33.9000001ZM7.4699998,36.7799997Q6.6700001,35.6800003,6.2799997,35.1900001L6.8800001,34.769999999999996Q7.0899997,35.0100002,7.4549999,35.4850001Q7.8199997,35.96,8.0999999,36.3299999L7.4699998,36.7799997ZM10.0900002,35.1800003Q10.6999998,36.1599998,11.5299997,37.6599998L10.8099995,38.0200005Q10.5599995,37.54,10.1399994,36.7950001Q9.7199998,36.0500002,9.440000099999999,35.5900002L10.0900002,35.1800003ZM2.31999999,37.8299999Q2.63,37.3299999,2.96499997,36.5900002Q3.3,35.8500004,3.49,35.269999999999996L4.24,35.5Q4.029999999999999,36.1399999,3.6799999000000003,36.9200001Q3.3299999,37.6999998,3.04,38.1999998L2.31999999,37.8299999ZM8.5799999,37.1100001Q8.5999999,36.9099998,8.6099997,36.6549997Q8.6199999,36.4000001,8.6199999,36.2200003L9.399999600000001,36.3899999Q9.3699999,36.980000000000004,9.3199997,37.5Q9.279999700000001,37.8899999,9.145,38.0950003Q9.0099998,38.3000002,8.75,38.3850002Q8.4899998,38.4700003,8.029999700000001,38.5Q7.5499997,38.5299997,7,38.5299997Q6.4699998,38.5299997,5.970000000000001,38.5Q5.51,38.4700003,5.27,38.3649998Q5.029999999999999,38.2600002,4.919999799999999,38.0100002Q4.8099999,37.7600002,4.8099999,37.29L4.8099999,35.3299999L5.6099999,35.3299999L5.6099999,37.0599999Q5.6099999,37.4299998,5.7449999,37.5700002Q5.8799999,37.71,6.2599998,37.7399998Q6.6300001,37.769999999999996,7.0499997,37.769999999999996Q7.48,37.769999999999996,7.8399997,37.7399998Q8.1299996,37.71,8.2750001,37.6599998Q8.4200001,37.6100001,8.4849997,37.4850001Q8.5499997,37.3600001,8.5799999,37.1100001ZM21.380001,30.55000019L21.380001,31.3299999L17.990000000000002,31.3299999Q17.549999,32.1800003,17.059998999999998,32.8299999L16.4,32.3400002Q16.85,31.7800002,17.244999999999997,31.0250001Q17.639999,30.26999998,17.869999999999997,29.52999973L18.66,29.77999973Q18.52,30.19000006,18.360001,30.55000019L21.380001,30.55000019ZM15.139999,29.60000038L15.96,29.60000038L15.96,33.1600003L15.139999,33.1600003L15.139999,29.60000038ZM13.15,29.980000496L13.96,29.980000496L13.96,33.0999999L13.15,33.0999999L13.15,29.980000496ZM20.33,33.4000001Q20.01,33.1500001,19.375,32.7150002Q18.74,32.2800002,18.34,32.0300002L18.77,31.4400001Q19.209999,31.7000003,19.82,32.105Q20.43,32.5100002,20.779999,32.77L20.33,33.4000001ZM14.72,36.6599998L13.92,36.6599998L13.92,33.5599999L20.02,33.5599999L20.02,36.6599998L19.219999,36.6599998L19.219999,34.3000002L14.72,34.3000002L14.72,36.6599998ZM20.439999,37.0799999Q20.48,36.6900001,20.48,36.2600002L21.33,36.4099998L21.279999,37.3200002Q21.25,37.8000002,21.139999,38.0299997Q21.029999,38.2600002,20.77,38.3500004Q20.51,38.4399996,19.969999,38.4700003Q19.66,38.4899998,19.049999,38.4899998Q18.43,38.4899998,18.119999,38.4700003Q17.66,38.4499998,17.424999,38.3450003Q17.190001000000002,38.2399998,17.094999,38Q17,37.7600002,17,37.29L17,36.4499998Q16.77,37.04,16.264999,37.4650002Q15.76,37.8899999,14.94,38.1999998Q14.12,38.5100002,12.86,38.7799997L12.52,38.0500002Q13.8,37.769999999999996,14.58,37.4650002Q15.36,37.1599998,15.78,36.7750001Q16.2,36.3899999,16.35,35.8600001Q16.42,35.619999899999996,16.469999,35.269999999999996Q16.52,34.9200001,16.52,34.7600002L17.35,34.7600002Q17.33,35.1700001,17.190001000000002,35.79L17.79,35.79L17.79,37.0599999Q17.79,37.3299999,17.84,37.4549999Q17.889999,37.5799999,18.025,37.6350002Q18.16,37.6900001,18.440001,37.71Q18.860001,37.730000000000004,19.059999,37.730000000000004Q19.27,37.730000000000004,19.67,37.71Q19.99,37.6900001,20.139999,37.6399999Q20.290001,37.5900002,20.349998,37.4700003Q20.41,37.3499999,20.439999,37.0799999Z" fill="#FFFFFF" fill-opacity="0.5"/></g></svg>