<svg xmlns="http://www.w3.org/2000/svg" xmlns:xlink="http://www.w3.org/1999/xlink" fill="none" version="1.1" width="24" height="40" viewBox="0 0 24 40"><path d="M5.5384622,12.141074Q5.5384622,12.743574,4.6153846,12.743574L0.92307758,12.743574Q0,12.743574,0,12.141074Q0,11.538574,0.92307758,11.538574L4.6153846,11.538574Q5.5384622,11.538574,5.5384622,12.141074ZM23.999887,12.141074Q23.999887,12.743574,23.076811,12.743574L19.384502,12.743574Q18.461426,12.743574,18.461426,12.141074Q18.461426,11.538574,19.384502,11.538574L23.076811,11.538574Q23.999887,11.538574,23.999887,12.141074ZM12.140963,18.461426Q12.743462,18.461426,12.743462,19.384502L12.743462,23.076811Q12.743462,23.999887,12.140963,23.999887Q11.538462,23.999887,11.538462,23.076811L11.538462,19.384502Q11.538462,18.461426,12.140963,18.461426ZM12.140963,0Q12.743462,0,12.743462,0.92307663L12.743462,4.6153851Q12.743462,5.5384622,12.140963,5.5384622Q11.538462,5.5384622,11.538462,4.6153851L11.538462,0.92307758Q11.538462,0,12.140963,0ZM17.07435,20.393856L17.07435,19.423965L19.01413,19.423965C19.19269,19.423965,19.337425,19.27923,19.337425,19.10067L19.337425,17.160889L20.307318,17.160889L20.307318,19.747261C20.307318,20.10434,20.017845,20.393856,19.660725,20.393856L17.07435,20.393856ZM6.9251938,3.6923828L6.9251938,4.6622725L4.9854579,4.6622725C4.8068972,4.6622725,4.6621609,4.8070526,4.6621609,4.9855695L4.6621609,6.9253492L3.6922708,6.9253492L3.6922708,4.3389759C3.6922708,3.9818988,3.9817433,3.6923828,4.3388643,3.6923828L6.9251938,3.6923828ZM3.6922708,17.160889L4.6621609,17.160889L4.6621609,19.10067C4.6621609,19.27923,4.8068972,19.423965,4.9854579,19.423965L6.9251938,19.423965L6.9251938,20.393856L4.3388643,20.393856C3.9817433,20.393856,3.6922708,20.10434,3.6922708,19.747261L3.6922708,17.160889ZM20.307562,6.9253063L19.337669,6.9253063L19.337669,4.9855256C19.337669,4.8070087,19.192934,4.6622725,19.014374,4.6622725L17.074594,4.6622725L17.074594,3.6923828L19.660969,3.6923828C20.018089,3.6923828,20.307562,3.9818554,20.307562,4.3389759L20.307562,6.9253063ZM15.69212,11.999924C15.69212,14.039129,14.039019,15.692231,11.999813,15.692231C9.9606075,15.692231,8.3075047,14.039129,8.3075047,11.999924C8.3075047,9.9607191,9.9606075,8.3076172,11.999813,8.3076172C14.039019,8.3076172,15.69212,9.9607191,15.69212,11.999924Z" fill="#13A9EB" fill-opacity="1"/><g><path d="M2.41,34.1100001Q4.1499999,33.5599999,5.0049999,32.9500003Q5.8599999,32.3400002,6.1999998,31.5500002L2.75,31.5500002L2.75,30.78999996L6.4299998,30.78999996Q6.5099998,30.34000015,6.5599999,29.59000015L7.4000001,29.61000061Q7.3599997,30.26000023,7.2599998,30.78999996L11.25,30.78999996L11.25,31.5500002L7.73,31.5500002Q8.9099998,33.3099999,11.6399994,34.0500002L11.3000002,34.8299999Q8.309999900000001,33.96,7,31.79Q6.73,32.46,6.23,32.96Q6.8699999,33.46,7.4000001,33.96L6.8899999,34.5299997Q6.27,33.9300003,5.669999799999999,33.46Q4.669999799999999,34.21,2.79999995,34.880000100000004L2.41,34.1100001ZM7.0699997,34.8100004Q7.4200001,35.25,8.1500001,36.29L7.5299997,36.7600002Q6.8599997,35.6599998,6.4899998,35.2200003L7.0699997,34.8100004ZM9.9099998,34.9499998Q10.2399998,35.4200001,10.75,36.2200003Q11.2600002,37.019999999999996,11.5599995,37.5100002L10.8999996,37.9499998Q10.5500002,37.3499999,10.0799999,36.5999999Q9.6099997,35.8500004,9.279999700000001,35.369999899999996L9.9099998,34.9499998ZM8.690000099999999,36.3000002L9.429999800000001,36.4700003Q9.4199996,36.8600001,9.3499999,37.5100002Q9.309999900000001,37.9099998,9.190000099999999,38.130000100000004Q9.0699997,38.3500004,8.8249998,38.454999900000004Q8.5799999,38.5600004,8.1299996,38.5900002Q7.6599998,38.630000100000004,7.0299997,38.630000100000004Q6.3899999,38.630000100000004,5.919999799999999,38.5900002Q5.3699999,38.5500002,5.1199999,38.2650003Q4.8699999,37.980000000000004,4.8699999,37.3899999L4.8699999,35.019999999999996L5.6599998,35.019999999999996L5.6599998,37.1100001Q5.6599998,37.4899998,5.779999999999999,37.6599998Q5.8999999,37.8299999,6.1799998,37.8499999Q6.7599998,37.8899999,7.0999999,37.8899999Q7.4400001,37.8899999,8.02,37.8499999Q8.3599997,37.8200002,8.4949999,37.6799998Q8.6299996,37.54,8.649999600000001,37.1799998L8.690000099999999,36.3000002ZM2.37,37.6999998Q2.70999998,37.1399999,3.025,36.480000000000004Q3.3399999,35.8199997,3.55,35.1900001L4.279999999999999,35.4700003Q4.0599999,36.0999999,3.7350000000000003,36.7950001Q3.41,37.4899998,3.0699999,38.0699997L2.37,37.6999998ZM12.59,32.5999999Q12.93,32.5500002,13.44,32.46L14.28,32.3200002L14.28,31.4200001L12.67,31.4200001L12.67,30.73000002L14.28,30.73000002L14.28,29.64000034L15,29.64000034L15,30.73000002L16.07,30.73000002L16.07,31.4200001L15,31.4200001L15,32.1900001Q15.07,32.1700001,15.23,32.1500001L16,31.9900002L16.07,32.7000003L15,32.9000001L15,33.9100003Q15,34.46,14.809999,34.6700001Q14.62,34.880000100000004,14.09,34.880000100000004Q13.64,34.880000100000004,13.07,34.8299999L12.93,34.1000004Q13.53,34.1800003,13.85,34.1800003Q14.1,34.1800003,14.190001,34.0700002Q14.28,33.96,14.28,33.6800003L14.28,33.04L13.63,33.1600003L12.68,33.3400002L12.59,32.5999999ZM21.65,32.9100003Q21.48,33.6800003,21.349998,34.0900002Q21.23,34.5100002,21.059999,34.6999998Q20.889999,34.8900003,20.630001,34.8900003Q20.349998,34.8900003,20.115,34.6549997Q19.879999,34.4200001,19.73,33.9200001Q19.65,33.6700001,19.59,33.1150002Q19.529999,32.5599999,19.529999,32.0700002L19.529999,31.4700003L18.309999,31.4700003Q18.26,32.3200002,18.1,32.8299999Q18.93,33.2400002,19.32,33.4500003L19.01,34.119999899999996Q18.690001,33.9300003,17.809998999999998,33.4700003Q17.619999999999997,33.77,17.32,34.0500002Q17.02,34.3299999,16.549999,34.6700001L15.94,34.1400003Q16.380000000000003,33.869999899999996,16.665,33.630000100000004Q16.95,33.3899999,17.130000000000003,33.130000100000004Q16.630000000000003,32.9000001,16.28,32.75L16.57,32.1400003L17.42,32.5100002Q17.54,32.0900002,17.58,31.4700003L16.57,31.4700003L16.57,30.75L17.6,30.75Q17.61,30.61000013,17.61,30.24000025L17.61,29.64000034L18.360001,29.64000034L18.34,30.75L20.25,30.75L20.25,32.02Q20.25,32.5100002,20.285,32.9900002Q20.32,33.4700003,20.380001,33.7000003Q20.49,34.0600004,20.639999,34.0600004Q20.709999,34.0600004,20.785,33.9500003Q20.860001,33.8400002,20.9,33.619999899999996Q21.02,33.0999999,21.09,32.6900001L21.65,32.9100003ZM16.759999999999998,34.8500004Q16.75,35.0600004,16.690001000000002,35.4000001L20.540001,35.4000001Q20.52,35.8299999,20.465,36.3850002Q20.41,36.9400001,20.34,37.3299999Q20.25,37.8000002,20.110001,38.0550003Q19.969999,38.3100004,19.695,38.4300003Q19.42,38.5500002,18.93,38.5699997Q18.790001,38.579999900000004,18.52,38.579999900000004Q17.84,38.579999900000004,17.27,38.5100002L17.130000000000003,37.7600002Q17.93,37.869999899999996,18.66,37.869999899999996Q19.119999,37.869999899999996,19.309999,37.71Q19.5,37.5500002,19.58,37.0799999Q19.67,36.5799999,19.700001,36.0999999L16.57,36.0999999Q16.41,36.8099999,16.03,37.2649999Q15.65,37.7199998,14.915,38.0550003Q14.18,38.3900003,12.88,38.71L12.53,37.96Q13.69,37.6799998,14.315001,37.4450002Q14.94,37.21,15.255,36.9000001Q15.57,36.5900002,15.7,36.0999999L13.04,36.0999999L13.04,35.4000001L15.82,35.4000001Q15.86,35.1800003,15.889999,34.8500004L16.759999999999998,34.8500004Z" fill="#13A9EB" fill-opacity="1"/></g></svg>